<?xml version="1.0" ?><!-- Uploaded to: SVG Repo, www.svgrepo.com, Generator: SVG Repo Mixer Tools -->
<svg width="800px" height="800px" viewBox="0 0 48 48" id="Layer_1" version="1.1" xml:space="preserve" xmlns="http://www.w3.org/2000/svg" xmlns:xlink="http://www.w3.org/1999/xlink"><style type="text/css">
	.st0{fill:#010101;}
</style><path class="st0" d="M7,25h1.33v16c0,0.276,0.224,0.5,0.5,0.5H21.5h5h12.67c0.276,0,0.5-0.224,0.5-0.5V25H41  c0.153,0,0.298-0.07,0.393-0.191c0.095-0.121,0.129-0.278,0.093-0.427l-1.83-7.5C39.601,16.658,39.4,16.5,39.17,16.5H28.32  l-3.82-6.202V7c0-0.276-0.224-0.5-0.5-0.5h-2.605c-0.276,0-0.5,0.224-0.5,0.5s0.224,0.5,0.5,0.5H23.5v2.798L19.68,16.5H8.83  c-0.23,0-0.431,0.158-0.486,0.381l-1.83,7.5c-0.036,0.149-0.002,0.307,0.093,0.427C6.702,24.93,6.847,25,7,25z M22,40.5v-5.458h4  V40.5H22z M38.67,40.5H27v-5.958c0-0.276-0.224-0.5-0.5-0.5h-5c-0.276,0-0.5,0.224-0.5,0.5V40.5H9.33V25h6.01  c0.173,0,0.334-0.09,0.426-0.238l4.62-7.5c0,0,0-0.001,0-0.002L24,11.394l3.614,5.867c0,0,0,0.001,0,0.002l4.62,7.5  C32.326,24.91,32.487,25,32.66,25h6.01V40.5z M38.777,17.5l1.586,6.5H39.17h-6.23l-4.004-6.5H38.777z M9.223,17.5h9.841L15.061,24  H8.83H7.637L9.223,17.5z"/><path class="st0" d="M24,21c-1.654,0-3,1.346-3,3s1.346,3,3,3s3-1.346,3-3S25.654,21,24,21z M24,26c-1.103,0-2-0.897-2-2  s0.897-2,2-2s2,0.897,2,2S25.103,26,24,26z"/><path class="st0" d="M18.583,27.583H12c-0.276,0-0.5,0.224-0.5,0.5V31c0,0.276,0.224,0.5,0.5,0.5h6.583c0.276,0,0.5-0.224,0.5-0.5  v-2.917C19.083,27.807,18.86,27.583,18.583,27.583z M12.5,28.583h2.292V30.5H12.5V28.583z M18.083,30.5h-2.292v-1.917h2.292V30.5z"/><path class="st0" d="M18.583,32.583H12c-0.276,0-0.5,0.224-0.5,0.5V36c0,0.276,0.224,0.5,0.5,0.5h6.583c0.276,0,0.5-0.224,0.5-0.5  v-2.917C19.083,32.807,18.86,32.583,18.583,32.583z M12.5,33.583h2.292V35.5H12.5V33.583z M18.083,35.5h-2.292v-1.917h2.292V35.5z"/><path class="st0" d="M28.917,28.083V31c0,0.276,0.224,0.5,0.5,0.5H36c0.276,0,0.5-0.224,0.5-0.5v-2.917c0-0.276-0.224-0.5-0.5-0.5  h-6.583C29.14,27.583,28.917,27.807,28.917,28.083z M35.5,30.5h-2.292v-1.917H35.5V30.5z M29.917,28.583h2.292V30.5h-2.292V28.583z"/><path class="st0" d="M36,32.583h-6.583c-0.276,0-0.5,0.224-0.5,0.5V36c0,0.276,0.224,0.5,0.5,0.5H36c0.276,0,0.5-0.224,0.5-0.5  v-2.917C36.5,32.807,36.276,32.583,36,32.583z M29.917,33.583h2.292V35.5h-2.292V33.583z M35.5,35.5h-2.292v-1.917H35.5V35.5z"/></svg>